<svg preserveAspectRatio="none" overflow="visible" style="display: block;" width="62.0469" height="62.0469" viewBox="0 0 62.0469 62.0469" fill="none" xmlns="http://www.w3.org/2000/svg">
<g id="Group 48047">
<foreignObject x="-34" y="-34" width="130.047" height="130.047"><div xmlns="http://www.w3.org/1999/xhtml" style="backdrop-filter:blur(17px);clip-path:url(#bgblur_0_0_204_clip_path);height:100%;width:100%"></div></foreignObject><path id="Rectangle 4069" data-figma-bg-blur-radius="34" d="M10 0.75H52.0469C57.1555 0.75 61.2969 4.89137 61.2969 10V52.0469C61.2969 57.1555 57.1555 61.2969 52.0469 61.2969H10C4.89137 61.2969 0.75 57.1555 0.75 52.0469V10C0.75 4.89137 4.89137 0.75 10 0.75Z" fill="white" fill-opacity="0.05" stroke="url(#paint0_linear_0_204)" stroke-width="1.5"/>
<path id="Vector" d="M31.0469 20.9332C28.9011 20.9358 26.8439 21.7893 25.3265 23.3066C23.8092 24.824 22.9557 26.8812 22.9531 29.027C22.9512 30.7805 23.5239 32.4863 24.5837 33.8832C24.5837 33.8832 24.8044 34.1739 24.8404 34.2158L31.0469 41.5355L37.2563 34.2121C37.2886 34.1731 37.5101 33.8832 37.5101 33.8832L37.5108 33.881C38.5699 32.4846 39.1423 30.7796 39.1406 29.027C39.1381 26.8812 38.2845 24.824 36.7672 23.3066C35.2499 21.7893 33.1927 20.9358 31.0469 20.9332ZM31.0469 31.9702C30.4648 31.9702 29.8957 31.7976 29.4117 31.4742C28.9277 31.1508 28.5505 30.6911 28.3277 30.1533C28.105 29.6155 28.0467 29.0237 28.1603 28.4528C28.2738 27.8819 28.5541 27.3575 28.9657 26.9458C29.3773 26.5342 29.9018 26.2539 30.4727 26.1404C31.0436 26.0268 31.6354 26.0851 32.1732 26.3078C32.711 26.5306 33.1706 26.9078 33.494 27.3918C33.8174 27.8759 33.9901 28.4449 33.9901 29.027C33.9891 29.8073 33.6787 30.5553 33.1269 31.1071C32.5752 31.6588 31.8272 31.9692 31.0469 31.9702Z" fill="white"/>
<g id="Vector_2">
</g>
</g>
<defs>
<clipPath id="bgblur_0_0_204_clip_path" transform="translate(34 34)"><path d="M10 0.75H52.0469C57.1555 0.75 61.2969 4.89137 61.2969 10V52.0469C61.2969 57.1555 57.1555 61.2969 52.0469 61.2969H10C4.89137 61.2969 0.75 57.1555 0.75 52.0469V10C0.75 4.89137 4.89137 0.75 10 0.75Z"/>
</clipPath><linearGradient id="paint0_linear_0_204" x1="14.9308" y1="-40.0793" x2="62.9353" y2="-39.6984" gradientUnits="userSpaceOnUse">
<stop stop-color="#168DCA"/>
<stop offset="1" stop-color="white"/>
</linearGradient>
</defs>
</svg>
